<?xml version="1.0" encoding="UTF-8"?>
<svg version="1" viewBox="0 0 124 124" xmlns="http://www.w3.org/2000/svg">
 <path d="m61.88 1.778c-5.385 13.203-8.633 21.839-14.629 34.649 3.676 3.896 8.188 8.434 15.516 13.559-7.878-3.242-13.252-6.497-17.267-9.874-7.673 16.011-19.695 38.818-44.09 82.65 19.174-11.068 34.037-17.893 47.889-20.497-0.62562-2.6923-0.93107-5.4491-0.91-8.213l0.023-0.614c0.304-12.284 6.694-21.73 14.264-21.09 7.57 0.642 13.454 11.126 13.15 23.41-0.058 2.312-0.319 4.536-0.774 6.598 13.701 2.68 28.405 9.487 47.32 20.407-3.73-6.866-7.059-13.056-10.238-18.95-5.007-3.882-10.23-8.933-20.884-14.402 7.323 1.903 12.566 4.099 16.653 6.552-32.323-60.177-34.94-68.173-46.023-94.185z" fill="#fff" fill-rule="evenodd"/>
</svg>
