<?xml version="1.0" encoding="UTF-8"?>
<svg version="1.1" viewBox="-1 -1 44.5 43.5" xmlns="http://www.w3.org/2000/svg">
 <g transform="translate(12.516 32.791)" fill="#fff">
  <path d="m8.7875-32.791c-11.764 0-21.304 9.5373-21.304 21.304 0 9.4121 6.1041 17.398 14.569 20.215 1.0647 0.1972 1.4556-0.46214 1.4556-1.0248 0-0.50765-0.019756-2.1862-0.028928-3.9663-5.9267 1.2887-7.1773-2.5135-7.1773-2.5135-0.96908-2.462-2.3654-3.1171-2.3654-3.1171-1.9329-1.3222 0.1457-1.295 0.1457-1.295 2.1392 0.15028 3.2657 2.1957 3.2657 2.1957 1.9001 3.2565 4.9837 2.3149 6.1994 1.7706 0.19156-1.3765 0.7433-2.3167 1.3526-2.8487-4.7318-0.53834-9.706-2.3654-9.706-10.528 0-2.3255 0.8322-4.2263 2.195-5.7182-0.22119-0.53658-0.95038-2.7033 0.20673-5.6377 0 0 1.7889-0.57221 5.8596 2.184 1.6993-0.47202 3.5218-0.70873 5.3322-0.7172 1.8105 0.0085 3.6343 0.24518 5.3368 0.7172 4.0661-2.7563 5.8526-2.184 5.8526-2.184 1.1596 2.9344 0.43039 5.1012 0.2092 5.6377 1.366 1.4919 2.1922 3.3927 2.1922 5.7182 0 8.1827-4.9837 9.984-9.7275 10.511 0.76412 0.66111 1.445 1.9576 1.445 3.9451 0 2.8504-0.02434 5.1446-0.02434 5.8462 0 0.56727 0.38312 1.2312 1.463 1.0223 8.4603-2.8201 14.557-10.803 14.557-20.212 0-11.766-9.5381-21.304-21.304-21.304" fill-rule="evenodd"/>
  <path d="m-4.4471-2.2038c-0.046919 0.10619-0.21343 0.13794-0.36512 0.065264-0.15487-0.06985-0.2413-0.21414-0.19121-0.32032 0.045861-0.10866 0.21237-0.13899 0.36689-0.066322 0.15452 0.069497 0.24271 0.21519 0.18944 0.32138"/>
  <path d="m-3.5841-1.2413c-0.1016 0.094192-0.30057 0.050447-0.43498-0.098425-0.1397-0.14852-0.16545-0.34749-0.062442-0.44274 0.10478-0.094192 0.29739-0.050094 0.43674 0.098425 0.1397 0.15028 0.16686 0.34713 0.060678 0.44274"/>
  <path d="m-2.7442-0.014488c-0.13053 0.091017-0.34431 0.0059972-0.47625-0.18344-0.13053-0.18979-0.13053-0.41698 0.00318-0.508 0.13194-0.091017 0.34255-0.008819 0.47625 0.17886 0.13018 0.19262 0.13018 0.41981-0.00318 0.51259"/>
  <path d="m-1.5936 1.171c-0.11677 0.12876-0.36548 0.094192-0.54751-0.081844-0.18627-0.17145-0.23812-0.41522-0.12136-0.54398 0.11853-0.12912 0.36865-0.092781 0.5521 0.081492 0.18486 0.17145 0.24095 0.41698 0.11677 0.54434"/>
  <path d="m-0.0060614 1.8593c-0.051858 0.16686-0.29104 0.24236-0.53234 0.17145-0.24095-0.073025-0.39864-0.26811-0.34996-0.43674 0.050094-0.16792 0.29069-0.24694 0.53375-0.1711 0.24059 0.072672 0.39864 0.2667 0.34854 0.43639"/>
  <path d="m1.7375 1.9868c6e-3 0.17568-0.19861 0.32138-0.45191 0.32456-0.25471 0.00564-0.46108-0.13652-0.4639-0.30939 0-0.17745 0.20038-0.32138 0.45473-0.32597 0.25329-0.00494 0.46108 0.13652 0.46108 0.3108"/>
  <path d="m3.3598 1.7108c0.030339 0.1711-0.1457 0.34713-0.39723 0.39405-0.2473 0.045508-0.47625-0.060678-0.50765-0.23036-0.030692-0.17568 0.14817-0.35172 0.39546-0.39723 0.25188-0.043744 0.47731 0.059267 0.50941 0.23354"/>
 </g>
</svg>
