<?xml version="1.0" encoding="UTF-8"?>
<svg version="1.1" viewBox="92 95 196 190" xmlns="http://www.w3.org/2000/svg">
 <path class="cls-1" d="m282.83 170.73-0.27-0.69-26.14-68.22a6.81 6.81 0 0 0-2.69-3.24 7 7 0 0 0-8 0.43 7 7 0 0 0-2.32 3.52l-17.65 54h-71.47l-17.65-54a6.86 6.86 0 0 0-2.32-3.53 7 7 0 0 0-8-0.43 6.87 6.87 0 0 0-2.69 3.24l-26.19 68.19-0.26 0.69a48.54 48.54 0 0 0 16.1 56.1l0.09 0.07 0.24 0.17 39.82 29.82 19.7 14.91 12 9.06a8.07 8.07 0 0 0 9.76 0l12-9.06 19.7-14.91 40.06-30 0.1-0.08a48.56 48.56 0 0 0 16.08-56.04z" fill="#fff"/>
</svg>
